%TF.GenerationSoftware,KiCad,Pcbnew,(6.0.2)*%
%TF.CreationDate,2022-08-01T15:44:27+08:00*%
%TF.ProjectId,TPS5430_Experiment,54505335-3433-4305-9f45-78706572696d,Sage Xiong*%
%TF.SameCoordinates,Original*%
%TF.FileFunction,Legend,Top*%
%TF.FilePolarity,Positive*%
%FSLAX46Y46*%
G04 Gerber Fmt 4.6, Leading zero omitted, Abs format (unit mm)*
G04 Created by KiCad (PCBNEW (6.0.2)) date 2022-08-01 15:44:27*
%MOMM*%
%LPD*%
G01*
G04 APERTURE LIST*
%ADD10C,0.152400*%
%ADD11C,0.150000*%
%ADD12C,0.120000*%
G04 APERTURE END LIST*
D10*
X130525904Y-111792000D02*
X130429142Y-111743619D01*
X130284000Y-111743619D01*
X130138857Y-111792000D01*
X130042095Y-111888761D01*
X129993714Y-111985523D01*
X129945333Y-112179047D01*
X129945333Y-112324190D01*
X129993714Y-112517714D01*
X130042095Y-112614476D01*
X130138857Y-112711238D01*
X130284000Y-112759619D01*
X130380761Y-112759619D01*
X130525904Y-112711238D01*
X130574285Y-112662857D01*
X130574285Y-112324190D01*
X130380761Y-112324190D01*
X131009714Y-112759619D02*
X131009714Y-111743619D01*
X131590285Y-112759619D01*
X131590285Y-111743619D01*
X132074095Y-112759619D02*
X132074095Y-111743619D01*
X132316000Y-111743619D01*
X132461142Y-111792000D01*
X132557904Y-111888761D01*
X132606285Y-111985523D01*
X132654666Y-112179047D01*
X132654666Y-112324190D01*
X132606285Y-112517714D01*
X132557904Y-112614476D01*
X132461142Y-112711238D01*
X132316000Y-112759619D01*
X132074095Y-112759619D01*
X155025904Y-86792000D02*
X154929142Y-86743619D01*
X154784000Y-86743619D01*
X154638857Y-86792000D01*
X154542095Y-86888761D01*
X154493714Y-86985523D01*
X154445333Y-87179047D01*
X154445333Y-87324190D01*
X154493714Y-87517714D01*
X154542095Y-87614476D01*
X154638857Y-87711238D01*
X154784000Y-87759619D01*
X154880761Y-87759619D01*
X155025904Y-87711238D01*
X155074285Y-87662857D01*
X155074285Y-87324190D01*
X154880761Y-87324190D01*
X155509714Y-87759619D02*
X155509714Y-86743619D01*
X156090285Y-87759619D01*
X156090285Y-86743619D01*
X156574095Y-87759619D02*
X156574095Y-86743619D01*
X156816000Y-86743619D01*
X156961142Y-86792000D01*
X157057904Y-86888761D01*
X157106285Y-86985523D01*
X157154666Y-87179047D01*
X157154666Y-87324190D01*
X157106285Y-87517714D01*
X157057904Y-87614476D01*
X156961142Y-87711238D01*
X156816000Y-87759619D01*
X156574095Y-87759619D01*
X130671047Y-117759619D02*
X130090476Y-117759619D01*
X130380761Y-117759619D02*
X130380761Y-116743619D01*
X130284000Y-116888761D01*
X130187238Y-116985523D01*
X130090476Y-117033904D01*
X131058095Y-116840380D02*
X131106476Y-116792000D01*
X131203238Y-116743619D01*
X131445142Y-116743619D01*
X131541904Y-116792000D01*
X131590285Y-116840380D01*
X131638666Y-116937142D01*
X131638666Y-117033904D01*
X131590285Y-117179047D01*
X131009714Y-117759619D01*
X131638666Y-117759619D01*
X131928952Y-116743619D02*
X132267619Y-117759619D01*
X132606285Y-116743619D01*
X155606476Y-91743619D02*
X155122666Y-91743619D01*
X155074285Y-92227428D01*
X155122666Y-92179047D01*
X155219428Y-92130666D01*
X155461333Y-92130666D01*
X155558095Y-92179047D01*
X155606476Y-92227428D01*
X155654857Y-92324190D01*
X155654857Y-92566095D01*
X155606476Y-92662857D01*
X155558095Y-92711238D01*
X155461333Y-92759619D01*
X155219428Y-92759619D01*
X155122666Y-92711238D01*
X155074285Y-92662857D01*
X155945142Y-91743619D02*
X156283809Y-92759619D01*
X156622476Y-91743619D01*
X143978182Y-122280737D02*
X144558753Y-122280737D01*
X144268468Y-123296737D02*
X144268468Y-122280737D01*
X144897420Y-123296737D02*
X144897420Y-122280737D01*
X145284468Y-122280737D01*
X145381230Y-122329118D01*
X145429611Y-122377498D01*
X145477992Y-122474260D01*
X145477992Y-122619403D01*
X145429611Y-122716165D01*
X145381230Y-122764546D01*
X145284468Y-122812927D01*
X144897420Y-122812927D01*
X145865039Y-123248356D02*
X146010182Y-123296737D01*
X146252087Y-123296737D01*
X146348849Y-123248356D01*
X146397230Y-123199975D01*
X146445611Y-123103213D01*
X146445611Y-123006451D01*
X146397230Y-122909689D01*
X146348849Y-122861308D01*
X146252087Y-122812927D01*
X146058563Y-122764546D01*
X145961801Y-122716165D01*
X145913420Y-122667784D01*
X145865039Y-122571022D01*
X145865039Y-122474260D01*
X145913420Y-122377498D01*
X145961801Y-122329118D01*
X146058563Y-122280737D01*
X146300468Y-122280737D01*
X146445611Y-122329118D01*
X147364849Y-122280737D02*
X146881039Y-122280737D01*
X146832658Y-122764546D01*
X146881039Y-122716165D01*
X146977801Y-122667784D01*
X147219706Y-122667784D01*
X147316468Y-122716165D01*
X147364849Y-122764546D01*
X147413230Y-122861308D01*
X147413230Y-123103213D01*
X147364849Y-123199975D01*
X147316468Y-123248356D01*
X147219706Y-123296737D01*
X146977801Y-123296737D01*
X146881039Y-123248356D01*
X146832658Y-123199975D01*
X148284087Y-122619403D02*
X148284087Y-123296737D01*
X148042182Y-122232356D02*
X147800277Y-122958070D01*
X148429230Y-122958070D01*
X148719515Y-122280737D02*
X149348468Y-122280737D01*
X149009801Y-122667784D01*
X149154944Y-122667784D01*
X149251706Y-122716165D01*
X149300087Y-122764546D01*
X149348468Y-122861308D01*
X149348468Y-123103213D01*
X149300087Y-123199975D01*
X149251706Y-123248356D01*
X149154944Y-123296737D01*
X148864658Y-123296737D01*
X148767896Y-123248356D01*
X148719515Y-123199975D01*
X149977420Y-122280737D02*
X150074182Y-122280737D01*
X150170944Y-122329118D01*
X150219325Y-122377498D01*
X150267706Y-122474260D01*
X150316087Y-122667784D01*
X150316087Y-122909689D01*
X150267706Y-123103213D01*
X150219325Y-123199975D01*
X150170944Y-123248356D01*
X150074182Y-123296737D01*
X149977420Y-123296737D01*
X149880658Y-123248356D01*
X149832277Y-123199975D01*
X149783896Y-123103213D01*
X149735515Y-122909689D01*
X149735515Y-122667784D01*
X149783896Y-122474260D01*
X149832277Y-122377498D01*
X149880658Y-122329118D01*
X149977420Y-122280737D01*
X150509611Y-123393498D02*
X151283706Y-123393498D01*
X151525611Y-122764546D02*
X151864277Y-122764546D01*
X152009420Y-123296737D02*
X151525611Y-123296737D01*
X151525611Y-122280737D01*
X152009420Y-122280737D01*
X152348087Y-122280737D02*
X153025420Y-123296737D01*
X153025420Y-122280737D02*
X152348087Y-123296737D01*
X153412468Y-123296737D02*
X153412468Y-122280737D01*
X153799515Y-122280737D01*
X153896277Y-122329118D01*
X153944658Y-122377498D01*
X153993039Y-122474260D01*
X153993039Y-122619403D01*
X153944658Y-122716165D01*
X153896277Y-122764546D01*
X153799515Y-122812927D01*
X153412468Y-122812927D01*
X154186563Y-123393498D02*
X154960658Y-123393498D01*
X155057420Y-122280737D02*
X155396087Y-123296737D01*
X155734753Y-122280737D01*
X156605611Y-123296737D02*
X156025039Y-123296737D01*
X156315325Y-123296737D02*
X156315325Y-122280737D01*
X156218563Y-122425879D01*
X156121801Y-122522641D01*
X156025039Y-122571022D01*
X157041039Y-123199975D02*
X157089420Y-123248356D01*
X157041039Y-123296737D01*
X156992658Y-123248356D01*
X157041039Y-123199975D01*
X157041039Y-123296737D01*
X157428087Y-122280737D02*
X158057039Y-122280737D01*
X157718372Y-122667784D01*
X157863515Y-122667784D01*
X157960277Y-122716165D01*
X158008658Y-122764546D01*
X158057039Y-122861308D01*
X158057039Y-123103213D01*
X158008658Y-123199975D01*
X157960277Y-123248356D01*
X157863515Y-123296737D01*
X157573230Y-123296737D01*
X157476468Y-123248356D01*
X157428087Y-123199975D01*
X140180277Y-124013258D02*
X140228658Y-123964878D01*
X140325420Y-123916497D01*
X140567325Y-123916497D01*
X140664087Y-123964878D01*
X140712468Y-124013258D01*
X140760849Y-124110020D01*
X140760849Y-124206782D01*
X140712468Y-124351925D01*
X140131896Y-124932497D01*
X140760849Y-124932497D01*
X141389801Y-123916497D02*
X141486563Y-123916497D01*
X141583325Y-123964878D01*
X141631706Y-124013258D01*
X141680087Y-124110020D01*
X141728468Y-124303544D01*
X141728468Y-124545449D01*
X141680087Y-124738973D01*
X141631706Y-124835735D01*
X141583325Y-124884116D01*
X141486563Y-124932497D01*
X141389801Y-124932497D01*
X141293039Y-124884116D01*
X141244658Y-124835735D01*
X141196277Y-124738973D01*
X141147896Y-124545449D01*
X141147896Y-124303544D01*
X141196277Y-124110020D01*
X141244658Y-124013258D01*
X141293039Y-123964878D01*
X141389801Y-123916497D01*
X142115515Y-124013258D02*
X142163896Y-123964878D01*
X142260658Y-123916497D01*
X142502563Y-123916497D01*
X142599325Y-123964878D01*
X142647706Y-124013258D01*
X142696087Y-124110020D01*
X142696087Y-124206782D01*
X142647706Y-124351925D01*
X142067134Y-124932497D01*
X142696087Y-124932497D01*
X143083134Y-124013258D02*
X143131515Y-123964878D01*
X143228277Y-123916497D01*
X143470182Y-123916497D01*
X143566944Y-123964878D01*
X143615325Y-124013258D01*
X143663706Y-124110020D01*
X143663706Y-124206782D01*
X143615325Y-124351925D01*
X143034753Y-124932497D01*
X143663706Y-124932497D01*
X144099134Y-124545449D02*
X144873230Y-124545449D01*
X145550563Y-123916497D02*
X145647325Y-123916497D01*
X145744087Y-123964878D01*
X145792468Y-124013258D01*
X145840849Y-124110020D01*
X145889230Y-124303544D01*
X145889230Y-124545449D01*
X145840849Y-124738973D01*
X145792468Y-124835735D01*
X145744087Y-124884116D01*
X145647325Y-124932497D01*
X145550563Y-124932497D01*
X145453801Y-124884116D01*
X145405420Y-124835735D01*
X145357039Y-124738973D01*
X145308658Y-124545449D01*
X145308658Y-124303544D01*
X145357039Y-124110020D01*
X145405420Y-124013258D01*
X145453801Y-123964878D01*
X145550563Y-123916497D01*
X146469801Y-124351925D02*
X146373039Y-124303544D01*
X146324658Y-124255163D01*
X146276277Y-124158401D01*
X146276277Y-124110020D01*
X146324658Y-124013258D01*
X146373039Y-123964878D01*
X146469801Y-123916497D01*
X146663325Y-123916497D01*
X146760087Y-123964878D01*
X146808468Y-124013258D01*
X146856849Y-124110020D01*
X146856849Y-124158401D01*
X146808468Y-124255163D01*
X146760087Y-124303544D01*
X146663325Y-124351925D01*
X146469801Y-124351925D01*
X146373039Y-124400306D01*
X146324658Y-124448687D01*
X146276277Y-124545449D01*
X146276277Y-124738973D01*
X146324658Y-124835735D01*
X146373039Y-124884116D01*
X146469801Y-124932497D01*
X146663325Y-124932497D01*
X146760087Y-124884116D01*
X146808468Y-124835735D01*
X146856849Y-124738973D01*
X146856849Y-124545449D01*
X146808468Y-124448687D01*
X146760087Y-124400306D01*
X146663325Y-124351925D01*
X147292277Y-124545449D02*
X148066372Y-124545449D01*
X148743706Y-123916497D02*
X148840468Y-123916497D01*
X148937230Y-123964878D01*
X148985611Y-124013258D01*
X149033992Y-124110020D01*
X149082372Y-124303544D01*
X149082372Y-124545449D01*
X149033992Y-124738973D01*
X148985611Y-124835735D01*
X148937230Y-124884116D01*
X148840468Y-124932497D01*
X148743706Y-124932497D01*
X148646944Y-124884116D01*
X148598563Y-124835735D01*
X148550182Y-124738973D01*
X148501801Y-124545449D01*
X148501801Y-124303544D01*
X148550182Y-124110020D01*
X148598563Y-124013258D01*
X148646944Y-123964878D01*
X148743706Y-123916497D01*
X150049992Y-124932497D02*
X149469420Y-124932497D01*
X149759706Y-124932497D02*
X149759706Y-123916497D01*
X149662944Y-124061639D01*
X149566182Y-124158401D01*
X149469420Y-124206782D01*
X151259515Y-124932497D02*
X151259515Y-123916497D01*
X151259515Y-124303544D02*
X151356277Y-124255163D01*
X151549801Y-124255163D01*
X151646563Y-124303544D01*
X151694944Y-124351925D01*
X151743325Y-124448687D01*
X151743325Y-124738973D01*
X151694944Y-124835735D01*
X151646563Y-124884116D01*
X151549801Y-124932497D01*
X151356277Y-124932497D01*
X151259515Y-124884116D01*
X152081992Y-124255163D02*
X152323896Y-124932497D01*
X152565801Y-124255163D02*
X152323896Y-124932497D01*
X152227134Y-125174401D01*
X152178753Y-125222782D01*
X152081992Y-125271163D01*
X153678563Y-124884116D02*
X153823706Y-124932497D01*
X154065611Y-124932497D01*
X154162372Y-124884116D01*
X154210753Y-124835735D01*
X154259134Y-124738973D01*
X154259134Y-124642211D01*
X154210753Y-124545449D01*
X154162372Y-124497068D01*
X154065611Y-124448687D01*
X153872087Y-124400306D01*
X153775325Y-124351925D01*
X153726944Y-124303544D01*
X153678563Y-124206782D01*
X153678563Y-124110020D01*
X153726944Y-124013258D01*
X153775325Y-123964878D01*
X153872087Y-123916497D01*
X154113992Y-123916497D01*
X154259134Y-123964878D01*
X155129992Y-124932497D02*
X155129992Y-124400306D01*
X155081611Y-124303544D01*
X154984849Y-124255163D01*
X154791325Y-124255163D01*
X154694563Y-124303544D01*
X155129992Y-124884116D02*
X155033230Y-124932497D01*
X154791325Y-124932497D01*
X154694563Y-124884116D01*
X154646182Y-124787354D01*
X154646182Y-124690592D01*
X154694563Y-124593830D01*
X154791325Y-124545449D01*
X155033230Y-124545449D01*
X155129992Y-124497068D01*
X156049230Y-124255163D02*
X156049230Y-125077639D01*
X156000849Y-125174401D01*
X155952468Y-125222782D01*
X155855706Y-125271163D01*
X155710563Y-125271163D01*
X155613801Y-125222782D01*
X156049230Y-124884116D02*
X155952468Y-124932497D01*
X155758944Y-124932497D01*
X155662182Y-124884116D01*
X155613801Y-124835735D01*
X155565420Y-124738973D01*
X155565420Y-124448687D01*
X155613801Y-124351925D01*
X155662182Y-124303544D01*
X155758944Y-124255163D01*
X155952468Y-124255163D01*
X156049230Y-124303544D01*
X156920087Y-124884116D02*
X156823325Y-124932497D01*
X156629801Y-124932497D01*
X156533039Y-124884116D01*
X156484658Y-124787354D01*
X156484658Y-124400306D01*
X156533039Y-124303544D01*
X156629801Y-124255163D01*
X156823325Y-124255163D01*
X156920087Y-124303544D01*
X156968468Y-124400306D01*
X156968468Y-124497068D01*
X156484658Y-124593830D01*
X158081230Y-123916497D02*
X158758563Y-124932497D01*
X158758563Y-123916497D02*
X158081230Y-124932497D01*
X159145611Y-124932497D02*
X159145611Y-124255163D01*
X159145611Y-123916497D02*
X159097230Y-123964878D01*
X159145611Y-124013258D01*
X159193992Y-123964878D01*
X159145611Y-123916497D01*
X159145611Y-124013258D01*
X159774563Y-124932497D02*
X159677801Y-124884116D01*
X159629420Y-124835735D01*
X159581039Y-124738973D01*
X159581039Y-124448687D01*
X159629420Y-124351925D01*
X159677801Y-124303544D01*
X159774563Y-124255163D01*
X159919706Y-124255163D01*
X160016468Y-124303544D01*
X160064849Y-124351925D01*
X160113230Y-124448687D01*
X160113230Y-124738973D01*
X160064849Y-124835735D01*
X160016468Y-124884116D01*
X159919706Y-124932497D01*
X159774563Y-124932497D01*
X160548658Y-124255163D02*
X160548658Y-124932497D01*
X160548658Y-124351925D02*
X160597039Y-124303544D01*
X160693801Y-124255163D01*
X160838944Y-124255163D01*
X160935706Y-124303544D01*
X160984087Y-124400306D01*
X160984087Y-124932497D01*
X161903325Y-124255163D02*
X161903325Y-125077639D01*
X161854944Y-125174401D01*
X161806563Y-125222782D01*
X161709801Y-125271163D01*
X161564658Y-125271163D01*
X161467896Y-125222782D01*
X161903325Y-124884116D02*
X161806563Y-124932497D01*
X161613039Y-124932497D01*
X161516277Y-124884116D01*
X161467896Y-124835735D01*
X161419515Y-124738973D01*
X161419515Y-124448687D01*
X161467896Y-124351925D01*
X161516277Y-124303544D01*
X161613039Y-124255163D01*
X161806563Y-124255163D01*
X161903325Y-124303544D01*
D11*
%TO.C,TP3*%
X160599095Y-98850380D02*
X161170523Y-98850380D01*
X160884809Y-99850380D02*
X160884809Y-98850380D01*
X161503857Y-99850380D02*
X161503857Y-98850380D01*
X161884809Y-98850380D01*
X161980047Y-98898000D01*
X162027666Y-98945619D01*
X162075285Y-99040857D01*
X162075285Y-99183714D01*
X162027666Y-99278952D01*
X161980047Y-99326571D01*
X161884809Y-99374190D01*
X161503857Y-99374190D01*
X162408619Y-98850380D02*
X163027666Y-98850380D01*
X162694333Y-99231333D01*
X162837190Y-99231333D01*
X162932428Y-99278952D01*
X162980047Y-99326571D01*
X163027666Y-99421809D01*
X163027666Y-99659904D01*
X162980047Y-99755142D01*
X162932428Y-99802761D01*
X162837190Y-99850380D01*
X162551476Y-99850380D01*
X162456238Y-99802761D01*
X162408619Y-99755142D01*
%TO.C,F1*%
X124466666Y-94228571D02*
X124133333Y-94228571D01*
X124133333Y-94752380D02*
X124133333Y-93752380D01*
X124609523Y-93752380D01*
X125514285Y-94752380D02*
X124942857Y-94752380D01*
X125228571Y-94752380D02*
X125228571Y-93752380D01*
X125133333Y-93895238D01*
X125038095Y-93990476D01*
X124942857Y-94038095D01*
%TO.C,U1*%
X135038095Y-104252380D02*
X135038095Y-105061904D01*
X135085714Y-105157142D01*
X135133333Y-105204761D01*
X135228571Y-105252380D01*
X135419047Y-105252380D01*
X135514285Y-105204761D01*
X135561904Y-105157142D01*
X135609523Y-105061904D01*
X135609523Y-104252380D01*
X136609523Y-105252380D02*
X136038095Y-105252380D01*
X136323809Y-105252380D02*
X136323809Y-104252380D01*
X136228571Y-104395238D01*
X136133333Y-104490476D01*
X136038095Y-104538095D01*
%TO.C,TP1*%
X123538095Y-86752380D02*
X124109523Y-86752380D01*
X123823809Y-87752380D02*
X123823809Y-86752380D01*
X124442857Y-87752380D02*
X124442857Y-86752380D01*
X124823809Y-86752380D01*
X124919047Y-86800000D01*
X124966666Y-86847619D01*
X125014285Y-86942857D01*
X125014285Y-87085714D01*
X124966666Y-87180952D01*
X124919047Y-87228571D01*
X124823809Y-87276190D01*
X124442857Y-87276190D01*
X125966666Y-87752380D02*
X125395238Y-87752380D01*
X125680952Y-87752380D02*
X125680952Y-86752380D01*
X125585714Y-86895238D01*
X125490476Y-86990476D01*
X125395238Y-87038095D01*
%TO.C,C2*%
X133657142Y-101466666D02*
X133704761Y-101514285D01*
X133752380Y-101657142D01*
X133752380Y-101752380D01*
X133704761Y-101895238D01*
X133609523Y-101990476D01*
X133514285Y-102038095D01*
X133323809Y-102085714D01*
X133180952Y-102085714D01*
X132990476Y-102038095D01*
X132895238Y-101990476D01*
X132800000Y-101895238D01*
X132752380Y-101752380D01*
X132752380Y-101657142D01*
X132800000Y-101514285D01*
X132847619Y-101466666D01*
X132847619Y-101085714D02*
X132800000Y-101038095D01*
X132752380Y-100942857D01*
X132752380Y-100704761D01*
X132800000Y-100609523D01*
X132847619Y-100561904D01*
X132942857Y-100514285D01*
X133038095Y-100514285D01*
X133180952Y-100561904D01*
X133752380Y-101133333D01*
X133752380Y-100514285D01*
%TO.C,J2*%
X158252380Y-93633333D02*
X158966666Y-93633333D01*
X159109523Y-93680952D01*
X159204761Y-93776190D01*
X159252380Y-93919047D01*
X159252380Y-94014285D01*
X158347619Y-93204761D02*
X158300000Y-93157142D01*
X158252380Y-93061904D01*
X158252380Y-92823809D01*
X158300000Y-92728571D01*
X158347619Y-92680952D01*
X158442857Y-92633333D01*
X158538095Y-92633333D01*
X158680952Y-92680952D01*
X159252380Y-93252380D01*
X159252380Y-92633333D01*
%TO.C,C3*%
X144383334Y-93907151D02*
X144335715Y-93954770D01*
X144192858Y-94002389D01*
X144097620Y-94002389D01*
X143954762Y-93954770D01*
X143859524Y-93859532D01*
X143811905Y-93764294D01*
X143764286Y-93573818D01*
X143764286Y-93430961D01*
X143811905Y-93240485D01*
X143859524Y-93145247D01*
X143954762Y-93050009D01*
X144097620Y-93002389D01*
X144192858Y-93002389D01*
X144335715Y-93050009D01*
X144383334Y-93097628D01*
X144716667Y-93002389D02*
X145335715Y-93002389D01*
X145002381Y-93383342D01*
X145145239Y-93383342D01*
X145240477Y-93430961D01*
X145288096Y-93478580D01*
X145335715Y-93573818D01*
X145335715Y-93811913D01*
X145288096Y-93907151D01*
X145240477Y-93954770D01*
X145145239Y-94002389D01*
X144859524Y-94002389D01*
X144764286Y-93954770D01*
X144716667Y-93907151D01*
%TO.C,C1*%
X144407142Y-106966666D02*
X144454761Y-107014285D01*
X144502380Y-107157142D01*
X144502380Y-107252380D01*
X144454761Y-107395238D01*
X144359523Y-107490476D01*
X144264285Y-107538095D01*
X144073809Y-107585714D01*
X143930952Y-107585714D01*
X143740476Y-107538095D01*
X143645238Y-107490476D01*
X143550000Y-107395238D01*
X143502380Y-107252380D01*
X143502380Y-107157142D01*
X143550000Y-107014285D01*
X143597619Y-106966666D01*
X144502380Y-106014285D02*
X144502380Y-106585714D01*
X144502380Y-106300000D02*
X143502380Y-106300000D01*
X143645238Y-106395238D01*
X143740476Y-106490476D01*
X143788095Y-106585714D01*
%TO.C,D2*%
X119561904Y-91252380D02*
X119561904Y-90252380D01*
X119800000Y-90252380D01*
X119942857Y-90300000D01*
X120038095Y-90395238D01*
X120085714Y-90490476D01*
X120133333Y-90680952D01*
X120133333Y-90823809D01*
X120085714Y-91014285D01*
X120038095Y-91109523D01*
X119942857Y-91204761D01*
X119800000Y-91252380D01*
X119561904Y-91252380D01*
X120514285Y-90347619D02*
X120561904Y-90300000D01*
X120657142Y-90252380D01*
X120895238Y-90252380D01*
X120990476Y-90300000D01*
X121038095Y-90347619D01*
X121085714Y-90442857D01*
X121085714Y-90538095D01*
X121038095Y-90680952D01*
X120466666Y-91252380D01*
X121085714Y-91252380D01*
%TO.C,J1*%
X123252380Y-114883333D02*
X123966666Y-114883333D01*
X124109523Y-114930952D01*
X124204761Y-115026190D01*
X124252380Y-115169047D01*
X124252380Y-115264285D01*
X124252380Y-113883333D02*
X124252380Y-114454761D01*
X124252380Y-114169047D02*
X123252380Y-114169047D01*
X123395238Y-114264285D01*
X123490476Y-114359523D01*
X123538095Y-114454761D01*
%TO.C,J3*%
X126966666Y-96752380D02*
X126966666Y-97466666D01*
X126919047Y-97609523D01*
X126823809Y-97704761D01*
X126680952Y-97752380D01*
X126585714Y-97752380D01*
X127347619Y-96752380D02*
X127966666Y-96752380D01*
X127633333Y-97133333D01*
X127776190Y-97133333D01*
X127871428Y-97180952D01*
X127919047Y-97228571D01*
X127966666Y-97323809D01*
X127966666Y-97561904D01*
X127919047Y-97657142D01*
X127871428Y-97704761D01*
X127776190Y-97752380D01*
X127490476Y-97752380D01*
X127395238Y-97704761D01*
X127347619Y-97657142D01*
%TO.C,L1*%
X147002392Y-112216676D02*
X147002392Y-112692867D01*
X146002392Y-112692867D01*
X147002392Y-111359533D02*
X147002392Y-111930962D01*
X147002392Y-111645248D02*
X146002392Y-111645248D01*
X146145250Y-111740486D01*
X146240488Y-111835724D01*
X146288107Y-111930962D01*
%TO.C,D1*%
X137561904Y-110752380D02*
X137561904Y-109752380D01*
X137800000Y-109752380D01*
X137942857Y-109800000D01*
X138038095Y-109895238D01*
X138085714Y-109990476D01*
X138133333Y-110180952D01*
X138133333Y-110323809D01*
X138085714Y-110514285D01*
X138038095Y-110609523D01*
X137942857Y-110704761D01*
X137800000Y-110752380D01*
X137561904Y-110752380D01*
X139085714Y-110752380D02*
X138514285Y-110752380D01*
X138800000Y-110752380D02*
X138800000Y-109752380D01*
X138704761Y-109895238D01*
X138609523Y-109990476D01*
X138514285Y-110038095D01*
%TO.C,TP4*%
X123538095Y-83252380D02*
X124109523Y-83252380D01*
X123823809Y-84252380D02*
X123823809Y-83252380D01*
X124442857Y-84252380D02*
X124442857Y-83252380D01*
X124823809Y-83252380D01*
X124919047Y-83300000D01*
X124966666Y-83347619D01*
X125014285Y-83442857D01*
X125014285Y-83585714D01*
X124966666Y-83680952D01*
X124919047Y-83728571D01*
X124823809Y-83776190D01*
X124442857Y-83776190D01*
X125871428Y-83585714D02*
X125871428Y-84252380D01*
X125633333Y-83204761D02*
X125395238Y-83919047D01*
X126014285Y-83919047D01*
%TO.C,R1*%
X135502387Y-92966655D02*
X135026197Y-93299989D01*
X135502387Y-93538084D02*
X134502387Y-93538084D01*
X134502387Y-93157131D01*
X134550007Y-93061893D01*
X134597626Y-93014274D01*
X134692864Y-92966655D01*
X134835721Y-92966655D01*
X134930959Y-93014274D01*
X134978578Y-93061893D01*
X135026197Y-93157131D01*
X135026197Y-93538084D01*
X135502387Y-92014274D02*
X135502387Y-92585703D01*
X135502387Y-92299989D02*
X134502387Y-92299989D01*
X134645245Y-92395227D01*
X134740483Y-92490465D01*
X134788102Y-92585703D01*
%TO.C,TP2*%
X139538095Y-111200380D02*
X140109523Y-111200380D01*
X139823809Y-112200380D02*
X139823809Y-111200380D01*
X140442857Y-112200380D02*
X140442857Y-111200380D01*
X140823809Y-111200380D01*
X140919047Y-111248000D01*
X140966666Y-111295619D01*
X141014285Y-111390857D01*
X141014285Y-111533714D01*
X140966666Y-111628952D01*
X140919047Y-111676571D01*
X140823809Y-111724190D01*
X140442857Y-111724190D01*
X141395238Y-111295619D02*
X141442857Y-111248000D01*
X141538095Y-111200380D01*
X141776190Y-111200380D01*
X141871428Y-111248000D01*
X141919047Y-111295619D01*
X141966666Y-111390857D01*
X141966666Y-111486095D01*
X141919047Y-111628952D01*
X141347619Y-112200380D01*
X141966666Y-112200380D01*
%TO.C,RV1*%
X138704761Y-89252380D02*
X138371428Y-88776190D01*
X138133333Y-89252380D02*
X138133333Y-88252380D01*
X138514285Y-88252380D01*
X138609523Y-88300000D01*
X138657142Y-88347619D01*
X138704761Y-88442857D01*
X138704761Y-88585714D01*
X138657142Y-88680952D01*
X138609523Y-88728571D01*
X138514285Y-88776190D01*
X138133333Y-88776190D01*
X138990476Y-88252380D02*
X139323809Y-89252380D01*
X139657142Y-88252380D01*
X140514285Y-89252380D02*
X139942857Y-89252380D01*
X140228571Y-89252380D02*
X140228571Y-88252380D01*
X140133333Y-88395238D01*
X140038095Y-88490476D01*
X139942857Y-88538095D01*
%TO.C,TP3*%
X164054000Y-97766000D02*
X163554000Y-98266000D01*
X164054000Y-96966000D02*
X164054000Y-97766000D01*
X159954000Y-96466000D02*
X163554000Y-96466000D01*
X159454000Y-97766000D02*
X159454000Y-96966000D01*
X163554000Y-96466000D02*
X164054000Y-96966000D01*
X159454000Y-96966000D02*
X159954000Y-96466000D01*
X163554000Y-98266000D02*
X159954000Y-98266000D01*
X159954000Y-98266000D02*
X159454000Y-97766000D01*
D12*
%TO.C,F1*%
X127447936Y-93390000D02*
X128652064Y-93390000D01*
X127447936Y-95210000D02*
X128652064Y-95210000D01*
D11*
%TO.C,U1*%
X138475000Y-105125000D02*
X138475000Y-104980000D01*
X138475000Y-99975000D02*
X138475000Y-100120000D01*
X142625000Y-105125000D02*
X138475000Y-105125000D01*
X142625000Y-105075000D02*
X144025000Y-105075000D01*
X142625000Y-105125000D02*
X142625000Y-105075000D01*
X142625000Y-99975000D02*
X138475000Y-99975000D01*
X142625000Y-99975000D02*
X142625000Y-100120000D01*
%TO.C,TP1*%
X126980000Y-86400000D02*
X130580000Y-86400000D01*
X131080000Y-86900000D02*
X131080000Y-87700000D01*
X131080000Y-87700000D02*
X130580000Y-88200000D01*
X126980000Y-88200000D02*
X126480000Y-87700000D01*
X130580000Y-86400000D02*
X131080000Y-86900000D01*
X130580000Y-88200000D02*
X126980000Y-88200000D01*
X126480000Y-86900000D02*
X126980000Y-86400000D01*
X126480000Y-87700000D02*
X126480000Y-86900000D01*
D12*
%TO.C,C2*%
X134315000Y-101527064D02*
X134315000Y-101072936D01*
X135785000Y-101527064D02*
X135785000Y-101072936D01*
%TO.C,J2*%
X157650000Y-94630000D02*
X168350000Y-94630000D01*
X168350000Y-94630000D02*
X168350000Y-84470000D01*
X168350000Y-84470000D02*
X157650000Y-84470000D01*
X157650000Y-84470000D02*
X157650000Y-94630000D01*
%TO.C,C3*%
X150210000Y-98145563D02*
X149145563Y-99210000D01*
X149145563Y-92390000D02*
X143390000Y-92390000D01*
X151237500Y-97647500D02*
X150450000Y-97647500D01*
X150210000Y-93454437D02*
X150210000Y-94740000D01*
X149145563Y-99210000D02*
X143390000Y-99210000D01*
X150843750Y-98041250D02*
X150843750Y-97253750D01*
X143390000Y-92390000D02*
X143390000Y-94740000D01*
X143390000Y-99210000D02*
X143390000Y-96860000D01*
X150210000Y-93454437D02*
X149145563Y-92390000D01*
X150210000Y-98145563D02*
X150210000Y-96860000D01*
%TO.C,C1*%
X143315000Y-109572936D02*
X143315000Y-110027064D01*
X144785000Y-109572936D02*
X144785000Y-110027064D01*
%TO.C,D2*%
X130450000Y-92450000D02*
X123550000Y-92450000D01*
X130450000Y-89150000D02*
X123550000Y-89150000D01*
X130450000Y-92450000D02*
X130450000Y-89150000D01*
%TO.C,J1*%
X118400000Y-119630000D02*
X129100000Y-119630000D01*
X129100000Y-119630000D02*
X129100000Y-109470000D01*
X129100000Y-109470000D02*
X118400000Y-109470000D01*
X118400000Y-109470000D02*
X118400000Y-119630000D01*
%TO.C,J3*%
X123050000Y-105650000D02*
X114250000Y-105650000D01*
X114250000Y-105650000D02*
X114250000Y-96450000D01*
X128950000Y-96450000D02*
X128950000Y-99050000D01*
X129150000Y-97300000D02*
X129150000Y-96250000D01*
X128950000Y-102950000D02*
X128950000Y-105650000D01*
X128100000Y-96250000D02*
X129150000Y-96250000D01*
X114250000Y-96450000D02*
X128950000Y-96450000D01*
X128950000Y-105650000D02*
X127050000Y-105650000D01*
%TO.C,L1*%
X158100000Y-100500000D02*
X158100000Y-113100000D01*
X148500000Y-113100000D02*
X145500000Y-113100000D01*
X158100000Y-113100000D02*
X155100000Y-113100000D01*
X145500000Y-113100000D02*
X145500000Y-100500000D01*
X145500000Y-100500000D02*
X148500000Y-100500000D01*
X155100000Y-100500000D02*
X158100000Y-100500000D01*
%TO.C,D1*%
X133900000Y-106150000D02*
X133900000Y-109450000D01*
X133900000Y-106150000D02*
X140800000Y-106150000D01*
X133900000Y-109450000D02*
X140800000Y-109450000D01*
D11*
%TO.C,TP4*%
X127020000Y-84700000D02*
X126520000Y-84200000D01*
X126520000Y-84200000D02*
X126520000Y-83400000D01*
X130620000Y-84700000D02*
X127020000Y-84700000D01*
X131120000Y-84200000D02*
X130620000Y-84700000D01*
X126520000Y-83400000D02*
X127020000Y-82900000D01*
X131120000Y-83400000D02*
X131120000Y-84200000D01*
X127020000Y-82900000D02*
X130620000Y-82900000D01*
X130620000Y-82900000D02*
X131120000Y-83400000D01*
D12*
%TO.C,R1*%
X134315000Y-96027064D02*
X134315000Y-95572936D01*
X135785000Y-96027064D02*
X135785000Y-95572936D01*
D11*
%TO.C,TP2*%
X138995000Y-112200000D02*
X138495000Y-112700000D01*
X138495000Y-110900000D02*
X138995000Y-111400000D01*
X134895000Y-112700000D02*
X134395000Y-112200000D01*
X134895000Y-110900000D02*
X138495000Y-110900000D01*
X138495000Y-112700000D02*
X134895000Y-112700000D01*
X134395000Y-111400000D02*
X134895000Y-110900000D01*
X134395000Y-112200000D02*
X134395000Y-111400000D01*
X138995000Y-111400000D02*
X138995000Y-112200000D01*
D12*
%TO.C,RV1*%
X141300000Y-89550000D02*
X136900000Y-89550000D01*
X136900000Y-89550000D02*
X136900000Y-99050000D01*
X136900000Y-99050000D02*
X141300000Y-99050000D01*
X141300000Y-99050000D02*
X141300000Y-89550000D01*
%TD*%
M02*
