M48
; DRILL file {KiCad (6.0.2)} date Wed Aug 10 10:43:02 2022
; FORMAT={-:-/ absolute / metric / decimal}
; #@! TF.CreationDate,2022-08-10T10:43:02+08:00
; #@! TF.GenerationSoftware,Kicad,Pcbnew,(6.0.2)
; #@! TF.FileFunction,Plated,1,2,PTH
FMAT,2
METRIC
; #@! TA.AperFunction,Plated,PTH,ComponentDrill
T1C0.300
; #@! TA.AperFunction,Plated,PTH,ComponentDrill
T2C0.762
; #@! TA.AperFunction,Plated,PTH,ComponentDrill
T3C0.800
; #@! TA.AperFunction,Plated,PTH,ComponentDrill
T4C1.000
; #@! TA.AperFunction,Plated,PTH,ComponentDrill
T5C1.600
%
G90
G05
T1
X139.95Y-100.75
X139.95Y-101.85
X139.95Y-103.15
X139.95Y-104.35
X141.15Y-100.75
X141.15Y-101.85
X141.15Y-103.15
X141.15Y-104.35
T2
X139.3Y-91.8
X139.3Y-94.3
X139.3Y-96.8
T3
X124.503Y-87.206
X127.043Y-87.206
X135.55Y-112.55
X135.55Y-115.09
X163.05Y-96.8
X165.59Y-96.8
T5
X123.8Y-112.01
X123.8Y-117.09
X163.05Y-87.01
X163.05Y-92.09
T4
G00X122.05Y-100.05
M15
G01X122.05Y-102.05
M16
G05
G00X124.05Y-105.75
M15
G01X126.05Y-105.75
M16
G05
G00X128.05Y-100.05
M15
G01X128.05Y-102.05
M16
G05
T0
M30
