%TF.GenerationSoftware,KiCad,Pcbnew,(6.0.2)*%
%TF.CreationDate,2022-08-01T15:44:27+08:00*%
%TF.ProjectId,TPS5430_Experiment,54505335-3433-4305-9f45-78706572696d,Sage Xiong*%
%TF.SameCoordinates,Original*%
%TF.FileFunction,Copper,L2,Bot*%
%TF.FilePolarity,Positive*%
%FSLAX46Y46*%
G04 Gerber Fmt 4.6, Leading zero omitted, Abs format (unit mm)*
G04 Created by KiCad (PCBNEW (6.0.2)) date 2022-08-01 15:44:27*
%MOMM*%
%LPD*%
G01*
G04 APERTURE LIST*
G04 Aperture macros list*
%AMRoundRect*
0 Rectangle with rounded corners*
0 $1 Rounding radius*
0 $2 $3 $4 $5 $6 $7 $8 $9 X,Y pos of 4 corners*
0 Add a 4 corners polygon primitive as box body*
4,1,4,$2,$3,$4,$5,$6,$7,$8,$9,$2,$3,0*
0 Add four circle primitives for the rounded corners*
1,1,$1+$1,$2,$3*
1,1,$1+$1,$4,$5*
1,1,$1+$1,$6,$7*
1,1,$1+$1,$8,$9*
0 Add four rect primitives between the rounded corners*
20,1,$1+$1,$2,$3,$4,$5,0*
20,1,$1+$1,$4,$5,$6,$7,0*
20,1,$1+$1,$6,$7,$8,$9,0*
20,1,$1+$1,$8,$9,$2,$3,0*%
G04 Aperture macros list end*
%TA.AperFunction,ComponentPad*%
%ADD10C,1.400000*%
%TD*%
%TA.AperFunction,ComponentPad*%
%ADD11C,0.600000*%
%TD*%
%TA.AperFunction,SMDPad,CuDef*%
%ADD12R,2.950000X4.500000*%
%TD*%
%TA.AperFunction,ComponentPad*%
%ADD13C,2.200000*%
%TD*%
%TA.AperFunction,ComponentPad*%
%ADD14R,3.500000X3.500000*%
%TD*%
%TA.AperFunction,ComponentPad*%
%ADD15RoundRect,0.750000X-0.750000X-1.000000X0.750000X-1.000000X0.750000X1.000000X-0.750000X1.000000X0*%
%TD*%
%TA.AperFunction,ComponentPad*%
%ADD16RoundRect,0.875000X-0.875000X-0.875000X0.875000X-0.875000X0.875000X0.875000X-0.875000X0.875000X0*%
%TD*%
%TA.AperFunction,ComponentPad*%
%ADD17C,1.524000*%
%TD*%
G04 APERTURE END LIST*
D10*
%TO.P,TP3,1,1*%
%TO.N,Net-(C3-Pad1)*%
X160484000Y-97366000D03*
%TO.P,TP3,2*%
X163024007Y-97365998D03*
%TD*%
D11*
%TO.P,U1,9,GNDPAD*%
%TO.N,GNDREF*%
X139950000Y-101850000D03*
X141150000Y-101850000D03*
X141150000Y-100750000D03*
D12*
X140550000Y-102550000D03*
D11*
X139950000Y-104350000D03*
X141150000Y-103150000D03*
X139950000Y-100750000D03*
X139950000Y-103150000D03*
X141150000Y-104350000D03*
%TD*%
D10*
%TO.P,TP1,1,1*%
%TO.N,Net-(C2-Pad1)*%
X130050000Y-87300000D03*
%TO.P,TP1,2*%
X127510007Y-87300003D03*
%TD*%
D13*
%TO.P,J2,1,Pin_1*%
%TO.N,Net-(C3-Pad1)*%
X163050000Y-92090000D03*
%TO.P,J2,2,Pin_2*%
%TO.N,GNDREF*%
X163050000Y-87010000D03*
%TD*%
%TO.P,J1,1,Pin_1*%
%TO.N,Net-(F1-Pad1)*%
X123800000Y-117090000D03*
%TO.P,J1,2,Pin_2*%
%TO.N,GNDREF*%
X123800000Y-112010000D03*
%TD*%
D14*
%TO.P,J3,1*%
%TO.N,Net-(F1-Pad1)*%
X128050000Y-101050000D03*
D15*
%TO.P,J3,2*%
%TO.N,GNDREF*%
X122050000Y-101050000D03*
D16*
%TO.P,J3,3*%
%TO.N,N/C*%
X125050000Y-105750000D03*
%TD*%
D10*
%TO.P,TP4,1,1*%
%TO.N,GNDREF*%
X127550000Y-83800000D03*
%TO.P,TP4,2*%
X130090012Y-83800010D03*
%TD*%
%TO.P,TP2,1,1*%
%TO.N,Net-(C1-Pad2)*%
X137965000Y-111800000D03*
%TO.P,TP2,2*%
X135425002Y-111800005D03*
%TD*%
D17*
%TO.P,RV1,1*%
%TO.N,N/C*%
X139300010Y-91799999D03*
%TO.P,RV1,2*%
%TO.N,Net-(C3-Pad1)*%
X139300010Y-94299994D03*
%TO.P,RV1,3*%
%TO.N,Net-(R1-Pad2)*%
X139300010Y-96799989D03*
%TD*%
%TA.AperFunction,Conductor*%
%TO.N,GNDREF*%
G36*
X164526275Y-78396202D02*
G01*
X164572768Y-78449858D01*
X164582872Y-78520132D01*
X164553378Y-78584712D01*
X164516575Y-78612442D01*
X164517100Y-78613387D01*
X164281828Y-78744069D01*
X164278196Y-78746841D01*
X164071509Y-78904579D01*
X164071505Y-78904583D01*
X164067884Y-78907346D01*
X163879751Y-79099797D01*
X163877066Y-79103486D01*
X163724058Y-79313696D01*
X163724053Y-79313703D01*
X163721370Y-79317390D01*
X163596059Y-79555567D01*
X163506443Y-79809338D01*
X163505560Y-79813820D01*
X163470855Y-79989900D01*
X163454399Y-80073389D01*
X163454172Y-80077942D01*
X163454172Y-80077945D01*
X163444991Y-80262383D01*
X163441018Y-80342186D01*
X163466579Y-80610100D01*
X163530547Y-80871518D01*
X163631583Y-81120963D01*
X163767569Y-81353210D01*
X163935658Y-81563395D01*
X164132327Y-81747113D01*
X164353457Y-81900516D01*
X164594416Y-82020391D01*
X164598750Y-82021812D01*
X164598753Y-82021813D01*
X164845823Y-82102807D01*
X164845829Y-82102808D01*
X164850156Y-82104227D01*
X164854647Y-82105007D01*
X164854648Y-82105007D01*
X165111538Y-82149611D01*
X165111546Y-82149612D01*
X165115319Y-82150267D01*
X165119156Y-82150458D01*
X165198777Y-82154422D01*
X165198785Y-82154422D01*
X165200348Y-82154500D01*
X165368374Y-82154500D01*
X165370642Y-82154335D01*
X165370654Y-82154335D01*
X165501457Y-82144844D01*
X165568425Y-82139985D01*
X165572880Y-82139001D01*
X165572883Y-82139001D01*
X165826770Y-82082947D01*
X165826772Y-82082946D01*
X165831226Y-82081963D01*
X166082900Y-81986613D01*
X166318172Y-81855931D01*
X166464842Y-81743996D01*
X166528491Y-81695421D01*
X166528495Y-81695417D01*
X166532116Y-81692654D01*
X166720249Y-81500203D01*
X166827242Y-81353210D01*
X166875942Y-81286304D01*
X166875947Y-81286297D01*
X166878630Y-81282610D01*
X166986292Y-81077978D01*
X167035711Y-81027005D01*
X167104843Y-81010842D01*
X167171740Y-81034621D01*
X167215160Y-81090791D01*
X167223800Y-81136645D01*
X167223800Y-123462839D01*
X167203798Y-123530960D01*
X167150142Y-123577453D01*
X167079868Y-123587557D01*
X167015288Y-123558063D01*
X166981016Y-123510142D01*
X166970130Y-123483267D01*
X166968417Y-123479037D01*
X166832431Y-123246790D01*
X166664342Y-123036605D01*
X166467673Y-122852887D01*
X166246543Y-122699484D01*
X166005584Y-122579609D01*
X166001250Y-122578188D01*
X166001247Y-122578187D01*
X165754177Y-122497193D01*
X165754171Y-122497192D01*
X165749844Y-122495773D01*
X165745352Y-122494993D01*
X165488462Y-122450389D01*
X165488454Y-122450388D01*
X165484681Y-122449733D01*
X165474718Y-122449237D01*
X165401223Y-122445578D01*
X165401215Y-122445578D01*
X165399652Y-122445500D01*
X165231626Y-122445500D01*
X165229358Y-122445665D01*
X165229346Y-122445665D01*
X165098543Y-122455156D01*
X165031575Y-122460015D01*
X165027120Y-122460999D01*
X165027117Y-122460999D01*
X164773230Y-122517053D01*
X164773228Y-122517054D01*
X164768774Y-122518037D01*
X164517100Y-122613387D01*
X164281828Y-122744069D01*
X164278196Y-122746841D01*
X164071509Y-122904579D01*
X164071505Y-122904583D01*
X164067884Y-122907346D01*
X163879751Y-123099797D01*
X163877066Y-123103486D01*
X163724058Y-123313696D01*
X163724053Y-123313703D01*
X163721370Y-123317390D01*
X163596059Y-123555567D01*
X163506443Y-123809338D01*
X163505560Y-123813820D01*
X163470855Y-123989900D01*
X163454399Y-124073389D01*
X163454172Y-124077942D01*
X163454172Y-124077945D01*
X163444991Y-124262383D01*
X163441018Y-124342186D01*
X163466579Y-124610100D01*
X163530547Y-124871518D01*
X163631583Y-125120963D01*
X163767569Y-125353210D01*
X163935658Y-125563395D01*
X164132327Y-125747113D01*
X164353457Y-125900516D01*
X164523255Y-125984989D01*
X164575336Y-126033240D01*
X164593063Y-126101987D01*
X164570809Y-126169406D01*
X164515637Y-126214090D01*
X164467133Y-126223800D01*
X122141846Y-126223800D01*
X122073725Y-126203798D01*
X122027232Y-126150142D01*
X122017128Y-126079868D01*
X122046622Y-126015288D01*
X122083425Y-125987558D01*
X122082900Y-125986613D01*
X122314179Y-125858149D01*
X122314180Y-125858148D01*
X122318172Y-125855931D01*
X122464842Y-125743996D01*
X122528491Y-125695421D01*
X122528495Y-125695417D01*
X122532116Y-125692654D01*
X122720249Y-125500203D01*
X122827242Y-125353210D01*
X122875942Y-125286304D01*
X122875947Y-125286297D01*
X122878630Y-125282610D01*
X123003941Y-125044433D01*
X123093557Y-124790662D01*
X123118688Y-124663156D01*
X123144720Y-124531083D01*
X123144721Y-124531077D01*
X123145601Y-124526611D01*
X123154782Y-124342186D01*
X123158755Y-124262383D01*
X123158755Y-124262377D01*
X123158982Y-124257814D01*
X123133421Y-123989900D01*
X123069453Y-123728482D01*
X122968417Y-123479037D01*
X122832431Y-123246790D01*
X122664342Y-123036605D01*
X122467673Y-122852887D01*
X122246543Y-122699484D01*
X122005584Y-122579609D01*
X122001250Y-122578188D01*
X122001247Y-122578187D01*
X121754177Y-122497193D01*
X121754171Y-122497192D01*
X121749844Y-122495773D01*
X121745352Y-122494993D01*
X121488462Y-122450389D01*
X121488454Y-122450388D01*
X121484681Y-122449733D01*
X121474718Y-122449237D01*
X121401223Y-122445578D01*
X121401215Y-122445578D01*
X121399652Y-122445500D01*
X121231626Y-122445500D01*
X121229358Y-122445665D01*
X121229346Y-122445665D01*
X121098543Y-122455156D01*
X121031575Y-122460015D01*
X121027120Y-122460999D01*
X121027117Y-122460999D01*
X120773230Y-122517053D01*
X120773228Y-122517054D01*
X120768774Y-122518037D01*
X120517100Y-122613387D01*
X120281828Y-122744069D01*
X120278196Y-122746841D01*
X120071509Y-122904579D01*
X120071505Y-122904583D01*
X120067884Y-122907346D01*
X119879751Y-123099797D01*
X119877066Y-123103486D01*
X119724058Y-123313696D01*
X119724053Y-123313703D01*
X119721370Y-123317390D01*
X119634098Y-123483267D01*
X119613708Y-123522022D01*
X119564289Y-123572995D01*
X119495157Y-123589158D01*
X119428260Y-123565379D01*
X119384840Y-123509209D01*
X119376200Y-123463355D01*
X119376200Y-117056793D01*
X122441264Y-117056793D01*
X122441561Y-117061946D01*
X122441561Y-117061949D01*
X122446813Y-117153041D01*
X122454085Y-117279156D01*
X122455222Y-117284202D01*
X122455223Y-117284208D01*
X122476185Y-117377220D01*
X122503052Y-117496439D01*
X122504994Y-117501221D01*
X122504995Y-117501225D01*
X122584905Y-117698020D01*
X122586849Y-117702807D01*
X122703226Y-117892717D01*
X122849058Y-118061070D01*
X123020428Y-118203344D01*
X123212734Y-118315718D01*
X123420811Y-118395175D01*
X123425879Y-118396206D01*
X123425882Y-118396207D01*
X123532778Y-118417955D01*
X123639072Y-118439581D01*
X123644247Y-118439771D01*
X123644249Y-118439771D01*
X123856491Y-118447554D01*
X123856495Y-118447554D01*
X123861655Y-118447743D01*
X123866775Y-118447087D01*
X123866777Y-118447087D01*
X123937642Y-118438009D01*
X124082582Y-118419441D01*
X124087531Y-118417956D01*
X124087537Y-118417955D01*
X124290969Y-118356922D01*
X124290968Y-118356922D01*
X124295919Y-118355437D01*
X124495939Y-118257448D01*
X124500144Y-118254448D01*
X124500150Y-118254445D01*
X124673065Y-118131106D01*
X124673067Y-118131104D01*
X124677269Y-118128107D01*
X124835039Y-117970887D01*
X124965012Y-117790010D01*
X125008111Y-117702807D01*
X125061404Y-117594976D01*
X125061405Y-117594974D01*
X125063698Y-117590334D01*
X125128447Y-117377220D01*
X125157519Y-117156394D01*
X125159142Y-117090000D01*
X125140892Y-116868017D01*
X125086631Y-116651995D01*
X124997817Y-116447736D01*
X124976249Y-116414397D01*
X124879645Y-116265070D01*
X124879640Y-116265064D01*
X124876834Y-116260726D01*
X124726933Y-116095986D01*
X124722882Y-116092787D01*
X124722878Y-116092783D01*
X124556196Y-115961147D01*
X124552138Y-115957942D01*
X124357144Y-115850299D01*
X124232185Y-115806049D01*
X124152059Y-115777675D01*
X124152056Y-115777674D01*
X124147187Y-115775950D01*
X124142098Y-115775043D01*
X124142096Y-115775043D01*
X123932996Y-115737796D01*
X123932990Y-115737795D01*
X123927907Y-115736890D01*
X123854094Y-115735988D01*
X123710361Y-115734232D01*
X123710359Y-115734232D01*
X123705191Y-115734169D01*
X123485022Y-115767859D01*
X123273311Y-115837057D01*
X123268723Y-115839445D01*
X123268719Y-115839447D01*
X123080334Y-115937514D01*
X123075745Y-115939903D01*
X123071612Y-115943006D01*
X123071609Y-115943008D01*
X122901765Y-116070531D01*
X122897630Y-116073636D01*
X122743748Y-116234664D01*
X122618233Y-116418663D01*
X122616060Y-116423345D01*
X122616058Y-116423348D01*
X122604738Y-116447736D01*
X122524455Y-116620691D01*
X122464932Y-116835322D01*
X122441264Y-117056793D01*
X119376200Y-117056793D01*
X119376200Y-111786614D01*
X134465977Y-111786614D01*
X134481641Y-111973144D01*
X134533237Y-112153080D01*
X134536051Y-112158555D01*
X134536053Y-112158560D01*
X134615984Y-112314090D01*
X134618799Y-112319567D01*
X134622622Y-112324390D01*
X134622625Y-112324395D01*
X134645192Y-112352867D01*
X134735070Y-112466264D01*
X134739764Y-112470259D01*
X134772783Y-112498360D01*
X134877620Y-112587584D01*
X134882998Y-112590590D01*
X134883000Y-112590591D01*
X134917389Y-112609810D01*
X135041020Y-112678905D01*
X135219045Y-112736749D01*
X135404916Y-112758913D01*
X135411051Y-112758441D01*
X135411053Y-112758441D01*
X135585410Y-112745025D01*
X135585415Y-112745024D01*
X135591551Y-112744552D01*
X135597481Y-112742896D01*
X135597483Y-112742896D01*
X135765915Y-112695869D01*
X135765914Y-112695869D01*
X135771843Y-112694214D01*
X135777347Y-112691434D01*
X135850776Y-112654342D01*
X135938923Y-112609815D01*
X135967378Y-112587584D01*
X136081573Y-112498365D01*
X136081574Y-112498365D01*
X136086429Y-112494571D01*
X136208740Y-112352872D01*
X136301200Y-112190113D01*
X136360285Y-112012496D01*
X136383746Y-111826785D01*
X136384120Y-111800005D01*
X136382807Y-111786609D01*
X137005975Y-111786609D01*
X137021639Y-111973139D01*
X137023338Y-111979064D01*
X137034603Y-112018348D01*
X137073235Y-112153075D01*
X137076050Y-112158552D01*
X137076051Y-112158555D01*
X137095023Y-112195471D01*
X137158797Y-112319562D01*
X137162620Y-112324386D01*
X137162623Y-112324390D01*
X137185194Y-112352867D01*
X137275068Y-112466259D01*
X137417618Y-112587579D01*
X137422996Y-112590585D01*
X137422998Y-112590586D01*
X137462366Y-112612588D01*
X137581018Y-112678900D01*
X137759043Y-112736744D01*
X137944914Y-112758908D01*
X137951049Y-112758436D01*
X137951051Y-112758436D01*
X138125408Y-112745020D01*
X138125413Y-112745019D01*
X138131549Y-112744547D01*
X138137479Y-112742891D01*
X138137481Y-112742891D01*
X138305913Y-112695864D01*
X138305912Y-112695864D01*
X138311841Y-112694209D01*
X138338369Y-112680809D01*
X138390774Y-112654337D01*
X138478921Y-112609810D01*
X138503521Y-112590591D01*
X138621571Y-112498360D01*
X138621572Y-112498360D01*
X138626427Y-112494566D01*
X138714844Y-112392134D01*
X138744709Y-112357535D01*
X138744710Y-112357533D01*
X138748738Y-112352867D01*
X138841198Y-112190108D01*
X138900283Y-112012491D01*
X138923744Y-111826780D01*
X138924118Y-111800000D01*
X138905852Y-111613706D01*
X138851749Y-111434509D01*
X138842316Y-111416768D01*
X138766764Y-111274674D01*
X138766762Y-111274671D01*
X138763870Y-111269232D01*
X138759980Y-111264462D01*
X138759977Y-111264458D01*
X138649457Y-111128948D01*
X138649454Y-111128945D01*
X138645562Y-111124173D01*
X138501332Y-111004855D01*
X138336673Y-110915824D01*
X138247265Y-110888148D01*
X138163744Y-110862294D01*
X138163741Y-110862293D01*
X138157857Y-110860472D01*
X138151732Y-110859828D01*
X138151731Y-110859828D01*
X137977824Y-110841549D01*
X137977823Y-110841549D01*
X137971696Y-110840905D01*
X137895143Y-110847872D01*
X137791418Y-110857312D01*
X137791415Y-110857313D01*
X137785279Y-110857871D01*
X137779373Y-110859609D01*
X137779369Y-110859610D01*
X137644075Y-110899429D01*
X137605708Y-110910721D01*
X137439822Y-110997444D01*
X137435022Y-111001304D01*
X137435021Y-111001304D01*
X137430598Y-111004860D01*
X137293940Y-111114736D01*
X137173619Y-111258130D01*
X137170655Y-111263522D01*
X137170652Y-111263526D01*
X137164521Y-111274679D01*
X137083441Y-111422163D01*
X137081580Y-111428030D01*
X137081579Y-111428032D01*
X137079523Y-111434514D01*
X137026841Y-111600588D01*
X137005975Y-111786609D01*
X136382807Y-111786609D01*
X136365854Y-111613711D01*
X136311751Y-111434514D01*
X136308307Y-111428037D01*
X136226766Y-111274679D01*
X136226763Y-111274674D01*
X136223872Y-111269237D01*
X136219982Y-111264467D01*
X136219979Y-111264463D01*
X136109459Y-111128953D01*
X136109454Y-111128948D01*
X136105564Y-111124178D01*
X135961334Y-111004860D01*
X135796675Y-110915829D01*
X135707267Y-110888153D01*
X135623746Y-110862299D01*
X135623743Y-110862298D01*
X135617859Y-110860477D01*
X135611734Y-110859833D01*
X135611733Y-110859833D01*
X135437826Y-110841554D01*
X135437825Y-110841554D01*
X135431698Y-110840910D01*
X135355145Y-110847877D01*
X135251420Y-110857317D01*
X135251417Y-110857318D01*
X135245281Y-110857876D01*
X135239375Y-110859614D01*
X135239371Y-110859615D01*
X135104077Y-110899434D01*
X135065710Y-110910726D01*
X134899824Y-110997449D01*
X134895024Y-111001309D01*
X134895023Y-111001309D01*
X134885726Y-111008784D01*
X134753942Y-111114741D01*
X134633621Y-111258135D01*
X134630657Y-111263526D01*
X134630654Y-111263531D01*
X134556457Y-111398496D01*
X134543443Y-111422168D01*
X134541583Y-111428032D01*
X134541581Y-111428037D01*
X134537655Y-111440414D01*
X134486843Y-111600593D01*
X134465977Y-111786614D01*
X119376200Y-111786614D01*
X119376200Y-106711478D01*
X123045500Y-106711478D01*
X123048580Y-106761312D01*
X123094678Y-106971854D01*
X123179757Y-107169880D01*
X123300746Y-107348245D01*
X123453281Y-107500515D01*
X123458248Y-107503872D01*
X123458251Y-107503874D01*
X123601342Y-107600571D01*
X123631858Y-107621193D01*
X123637373Y-107623551D01*
X123824515Y-107703567D01*
X123824518Y-107703568D01*
X123830033Y-107705926D01*
X123835896Y-107707199D01*
X124035891Y-107750622D01*
X124035893Y-107750622D01*
X124040654Y-107751656D01*
X124051499Y-107752300D01*
X124086666Y-107754390D01*
X124086675Y-107754390D01*
X124088522Y-107754500D01*
X126011478Y-107754500D01*
X126061312Y-107751420D01*
X126271854Y-107705322D01*
X126403526Y-107648751D01*
X126464371Y-107622610D01*
X126464372Y-107622609D01*
X126469880Y-107620243D01*
X126648245Y-107499254D01*
X126800515Y-107346719D01*
X126921193Y-107168142D01*
X127005926Y-106969967D01*
X127051656Y-106759346D01*
X127054500Y-106711478D01*
X127054500Y-104788522D01*
X127051420Y-104738688D01*
X127005322Y-104528146D01*
X126920243Y-104330120D01*
X126799254Y-104151755D01*
X126646719Y-103999485D01*
X126641752Y-103996128D01*
X126641749Y-103996126D01*
X126473111Y-103882165D01*
X126473112Y-103882165D01*
X126468142Y-103878807D01*
X126446473Y-103869542D01*
X126275485Y-103796433D01*
X126275482Y-103796432D01*
X126269967Y-103794074D01*
X126065214Y-103749618D01*
X126064109Y-103749378D01*
X126064107Y-103749378D01*
X126059346Y-103748344D01*
X126048501Y-103747700D01*
X126013334Y-103745610D01*
X126013325Y-103745610D01*
X126011478Y-103745500D01*
X124088522Y-103745500D01*
X124038688Y-103748580D01*
X123828146Y-103794678D01*
X123696474Y-103851249D01*
X123637820Y-103876449D01*
X123630120Y-103879757D01*
X123451755Y-104000746D01*
X123299485Y-104153281D01*
X123178807Y-104331858D01*
X123094074Y-104530033D01*
X123048344Y-104740654D01*
X123045500Y-104788522D01*
X123045500Y-106711478D01*
X119376200Y-106711478D01*
X119376200Y-99274933D01*
X126045500Y-99274933D01*
X126045501Y-102825066D01*
X126060266Y-102899301D01*
X126116516Y-102983484D01*
X126200699Y-103039734D01*
X126274933Y-103054500D01*
X128049713Y-103054500D01*
X129825066Y-103054499D01*
X129860818Y-103047388D01*
X129887126Y-103042156D01*
X129887128Y-103042155D01*
X129899301Y-103039734D01*
X129909621Y-103032839D01*
X129909622Y-103032838D01*
X129973168Y-102990377D01*
X129983484Y-102983484D01*
X130039734Y-102899301D01*
X130054500Y-102825067D01*
X130054499Y-99274934D01*
X130039734Y-99200699D01*
X129983484Y-99116516D01*
X129899301Y-99060266D01*
X129825067Y-99045500D01*
X128050287Y-99045500D01*
X126274934Y-99045501D01*
X126239182Y-99052612D01*
X126212874Y-99057844D01*
X126212872Y-99057845D01*
X126200699Y-99060266D01*
X126190379Y-99067161D01*
X126190378Y-99067162D01*
X126129985Y-99107516D01*
X126116516Y-99116516D01*
X126060266Y-99200699D01*
X126045500Y-99274933D01*
X119376200Y-99274933D01*
X119376200Y-96785728D01*
X138278692Y-96785728D01*
X138295372Y-96984375D01*
X138307389Y-97026283D01*
X138347622Y-97166588D01*
X138350320Y-97175998D01*
X138441440Y-97353300D01*
X138565263Y-97509526D01*
X138717073Y-97638726D01*
X138722451Y-97641732D01*
X138722453Y-97641733D01*
X138764407Y-97665180D01*
X138891086Y-97735978D01*
X138896945Y-97737882D01*
X138896948Y-97737883D01*
X138941261Y-97752281D01*
X139080675Y-97797580D01*
X139086785Y-97798309D01*
X139086787Y-97798309D01*
X139154324Y-97806362D01*
X139278619Y-97821183D01*
X139284754Y-97820711D01*
X139284756Y-97820711D01*
X139471236Y-97806362D01*
X139471241Y-97806361D01*
X139477377Y-97805889D01*
X139483307Y-97804233D01*
X139483309Y-97804233D01*
X139573378Y-97779085D01*
X139669380Y-97752281D01*
X139674880Y-97749503D01*
X139841812Y-97665180D01*
X139841814Y-97665179D01*
X139847313Y-97662401D01*
X140004400Y-97539671D01*
X140026972Y-97513521D01*
X140130628Y-97393435D01*
X140130629Y-97393433D01*
X140134657Y-97388767D01*
X140145601Y-97369503D01*
X140155198Y-97352609D01*
X159524975Y-97352609D01*
X159528643Y-97396284D01*
X159537747Y-97504695D01*
X159540639Y-97539139D01*
X159542338Y-97545064D01*
X159590536Y-97713149D01*
X159592235Y-97719075D01*
X159595050Y-97724552D01*
X159595051Y-97724555D01*
X159632955Y-97798309D01*
X159677797Y-97885562D01*
X159681620Y-97890386D01*
X159681623Y-97890390D01*
X159707894Y-97923535D01*
X159794068Y-98032259D01*
X159936618Y-98153579D01*
X159941995Y-98156584D01*
X159941998Y-98156586D01*
X159976392Y-98175808D01*
X160100018Y-98244900D01*
X160278043Y-98302744D01*
X160463914Y-98324908D01*
X160470049Y-98324436D01*
X160470051Y-98324436D01*
X160644408Y-98311020D01*
X160644413Y-98311019D01*
X160650549Y-98310547D01*
X160656479Y-98308891D01*
X160656481Y-98308891D01*
X160824913Y-98261864D01*
X160824912Y-98261864D01*
X160830841Y-98260209D01*
X160836339Y-98257432D01*
X160909774Y-98220337D01*
X160997921Y-98175810D01*
X161002783Y-98172012D01*
X161140571Y-98064360D01*
X161140573Y-98064358D01*
X161145427Y-98060566D01*
X161267738Y-97918867D01*
X161360198Y-97756108D01*
X161419283Y-97578491D01*
X161442744Y-97392780D01*
X161443118Y-97366000D01*
X161441805Y-97352607D01*
X162064982Y-97352607D01*
X162080646Y-97539137D01*
X162082345Y-97545062D01*
X162115992Y-97662401D01*
X162132242Y-97719073D01*
X162135057Y-97724550D01*
X162135058Y-97724553D01*
X162151274Y-97756106D01*
X162217804Y-97885560D01*
X162221627Y-97890384D01*
X162221630Y-97890388D01*
X162327546Y-98024019D01*
X162334075Y-98032257D01*
X162476625Y-98153577D01*
X162482003Y-98156583D01*
X162482005Y-98156584D01*
X162509614Y-98172014D01*
X162640025Y-98244898D01*
X162818050Y-98302742D01*
X163003921Y-98324906D01*
X163010056Y-98324434D01*
X163010058Y-98324434D01*
X163184415Y-98311018D01*
X163184420Y-98311017D01*
X163190556Y-98310545D01*
X163196486Y-98308889D01*
X163196488Y-98308889D01*
X163364920Y-98261862D01*
X163364919Y-98261862D01*
X163370848Y-98260207D01*
X163397382Y-98246804D01*
X163449781Y-98220335D01*
X163537928Y-98175808D01*
X163566383Y-98153577D01*
X163680578Y-98064358D01*
X163680579Y-98064358D01*
X163685434Y-98060564D01*
X163807745Y-97918865D01*
X163900205Y-97756106D01*
X163959290Y-97578489D01*
X163982751Y-97392778D01*
X163983125Y-97365998D01*
X163964859Y-97179704D01*
X163910756Y-97000507D01*
X163904192Y-96988161D01*
X163825771Y-96840672D01*
X163825769Y-96840669D01*
X163822877Y-96835230D01*
X163818985Y-96830458D01*
X163818984Y-96830456D01*
X163708464Y-96694946D01*
X163708461Y-96694943D01*
X163704569Y-96690171D01*
X163698869Y-96685455D01*
X163604914Y-96607729D01*
X163560339Y-96570853D01*
X163395680Y-96481822D01*
X163306272Y-96454146D01*
X163222751Y-96428292D01*
X163222748Y-96428291D01*
X163216864Y-96426470D01*
X163210739Y-96425826D01*
X163210738Y-96425826D01*
X163036831Y-96407547D01*
X163036830Y-96407547D01*
X163030703Y-96406903D01*
X162954150Y-96413870D01*
X162850425Y-96423310D01*
X162850422Y-96423311D01*
X162844286Y-96423869D01*
X162838380Y-96425607D01*
X162838376Y-96425608D01*
X162703082Y-96465427D01*
X162664715Y-96476719D01*
X162498829Y-96563442D01*
X162494029Y-96567302D01*
X162494028Y-96567302D01*
X162489609Y-96570855D01*
X162352947Y-96680734D01*
X162232626Y-96824128D01*
X162229662Y-96829520D01*
X162229659Y-96829524D01*
X162155462Y-96964489D01*
X162142448Y-96988161D01*
X162140587Y-96994028D01*
X162140586Y-96994030D01*
X162087710Y-97160716D01*
X162085848Y-97166586D01*
X162064982Y-97352607D01*
X161441805Y-97352607D01*
X161424852Y-97179706D01*
X161370749Y-97000509D01*
X161364185Y-96988163D01*
X161285764Y-96840674D01*
X161285762Y-96840671D01*
X161282870Y-96835232D01*
X161278980Y-96830462D01*
X161278977Y-96830458D01*
X161168457Y-96694948D01*
X161168454Y-96694945D01*
X161164562Y-96690173D01*
X161159811Y-96686242D01*
X161040602Y-96587624D01*
X161020332Y-96570855D01*
X160855673Y-96481824D01*
X160766265Y-96454148D01*
X160682744Y-96428294D01*
X160682741Y-96428293D01*
X160676857Y-96426472D01*
X160670732Y-96425828D01*
X160670731Y-96425828D01*
X160496824Y-96407549D01*
X160496823Y-96407549D01*
X160490696Y-96406905D01*
X160414143Y-96413872D01*
X160310418Y-96423312D01*
X160310415Y-96423313D01*
X160304279Y-96423871D01*
X160298373Y-96425609D01*
X160298369Y-96425610D01*
X160163075Y-96465429D01*
X160124708Y-96476721D01*
X159958822Y-96563444D01*
X159954024Y-96567302D01*
X159954021Y-96567304D01*
X159944720Y-96574782D01*
X159812940Y-96680736D01*
X159692619Y-96824130D01*
X159689655Y-96829522D01*
X159689652Y-96829526D01*
X159615455Y-96964491D01*
X159602441Y-96988163D01*
X159600580Y-96994030D01*
X159600579Y-96994032D01*
X159588492Y-97032135D01*
X159545841Y-97166588D01*
X159524975Y-97352609D01*
X140155198Y-97352609D01*
X140230075Y-97220800D01*
X140233122Y-97215437D01*
X140296045Y-97026283D01*
X140302115Y-96978236D01*
X140320588Y-96832012D01*
X140320589Y-96832002D01*
X140321030Y-96828509D01*
X140321428Y-96799989D01*
X140301975Y-96601595D01*
X140300194Y-96595696D01*
X140300193Y-96595691D01*
X140246139Y-96416656D01*
X140244358Y-96410757D01*
X140150771Y-96234745D01*
X140146881Y-96229975D01*
X140146878Y-96229971D01*
X140028673Y-96085038D01*
X140028670Y-96085035D01*
X140024778Y-96080263D01*
X139871180Y-95953195D01*
X139695825Y-95858381D01*
X139505395Y-95799433D01*
X139499270Y-95798789D01*
X139499269Y-95798789D01*
X139313270Y-95779240D01*
X139313268Y-95779240D01*
X139307141Y-95778596D01*
X139184262Y-95789779D01*
X139114756Y-95796104D01*
X139114755Y-95796104D01*
X139108615Y-95796663D01*
X139102701Y-95798404D01*
X139102699Y-95798404D01*
X138972549Y-95836710D01*
X138917380Y-95852947D01*
X138740719Y-95945303D01*
X138735919Y-95949163D01*
X138735918Y-95949163D01*
X138730903Y-95953195D01*
X138585361Y-96070214D01*
X138457224Y-96222922D01*
X138361189Y-96397610D01*
X138359328Y-96403477D01*
X138359327Y-96403479D01*
X138352034Y-96426470D01*
X138300912Y-96587624D01*
X138278692Y-96785728D01*
X119376200Y-96785728D01*
X119376200Y-94285733D01*
X138278692Y-94285733D01*
X138295372Y-94484380D01*
X138350320Y-94676003D01*
X138441440Y-94853305D01*
X138565263Y-95009531D01*
X138717073Y-95138731D01*
X138722451Y-95141737D01*
X138722453Y-95141738D01*
X138764407Y-95165185D01*
X138891086Y-95235983D01*
X138896945Y-95237887D01*
X138896948Y-95237888D01*
X138932711Y-95249508D01*
X139080675Y-95297585D01*
X139086785Y-95298314D01*
X139086787Y-95298314D01*
X139154324Y-95306367D01*
X139278619Y-95321188D01*
X139284754Y-95320716D01*
X139284756Y-95320716D01*
X139471236Y-95306367D01*
X139471241Y-95306366D01*
X139477377Y-95305894D01*
X139483307Y-95304238D01*
X139483309Y-95304238D01*
X139573378Y-95279090D01*
X139669380Y-95252286D01*
X139674880Y-95249508D01*
X139841812Y-95165185D01*
X139841814Y-95165184D01*
X139847313Y-95162406D01*
X140004400Y-95039676D01*
X140026972Y-95013526D01*
X140130628Y-94893440D01*
X140130629Y-94893438D01*
X140134657Y-94888772D01*
X140233122Y-94715442D01*
X140296045Y-94526288D01*
X140302115Y-94478241D01*
X140320588Y-94332017D01*
X140320589Y-94332007D01*
X140321030Y-94328514D01*
X140321428Y-94299994D01*
X140301975Y-94101600D01*
X140300194Y-94095701D01*
X140300193Y-94095696D01*
X140246139Y-93916661D01*
X140244358Y-93910762D01*
X140150771Y-93734750D01*
X140146881Y-93729980D01*
X140146878Y-93729976D01*
X140028673Y-93585043D01*
X140028670Y-93585040D01*
X140024778Y-93580268D01*
X139871180Y-93453200D01*
X139695825Y-93358386D01*
X139505395Y-93299438D01*
X139499270Y-93298794D01*
X139499269Y-93298794D01*
X139313270Y-93279245D01*
X139313268Y-93279245D01*
X139307141Y-93278601D01*
X139184262Y-93289784D01*
X139114756Y-93296109D01*
X139114755Y-93296109D01*
X139108615Y-93296668D01*
X139102701Y-93298409D01*
X139102699Y-93298409D01*
X139052747Y-93313111D01*
X138917380Y-93352952D01*
X138740719Y-93445308D01*
X138735919Y-93449168D01*
X138735918Y-93449168D01*
X138730903Y-93453200D01*
X138585361Y-93570219D01*
X138457224Y-93722927D01*
X138361189Y-93897615D01*
X138300912Y-94087629D01*
X138278692Y-94285733D01*
X119376200Y-94285733D01*
X119376200Y-91785738D01*
X138278692Y-91785738D01*
X138295372Y-91984385D01*
X138307389Y-92026293D01*
X138344696Y-92156394D01*
X138350320Y-92176008D01*
X138441440Y-92353310D01*
X138565263Y-92509536D01*
X138717073Y-92638736D01*
X138722451Y-92641742D01*
X138722453Y-92641743D01*
X138764407Y-92665190D01*
X138891086Y-92735988D01*
X138896945Y-92737892D01*
X138896948Y-92737893D01*
X138932711Y-92749513D01*
X139080675Y-92797590D01*
X139086785Y-92798319D01*
X139086787Y-92798319D01*
X139154324Y-92806372D01*
X139278619Y-92821193D01*
X139284754Y-92820721D01*
X139284756Y-92820721D01*
X139471236Y-92806372D01*
X139471241Y-92806371D01*
X139477377Y-92805899D01*
X139483307Y-92804243D01*
X139483309Y-92804243D01*
X139573379Y-92779095D01*
X139669380Y-92752291D01*
X139674880Y-92749513D01*
X139841812Y-92665190D01*
X139841814Y-92665189D01*
X139847313Y-92662411D01*
X140004400Y-92539681D01*
X140026972Y-92513531D01*
X140130628Y-92393445D01*
X140130629Y-92393443D01*
X140134657Y-92388777D01*
X140233122Y-92215447D01*
X140285899Y-92056793D01*
X161691264Y-92056793D01*
X161691561Y-92061946D01*
X161691561Y-92061949D01*
X161696813Y-92153041D01*
X161704085Y-92279156D01*
X161705222Y-92284202D01*
X161705223Y-92284208D01*
X161726185Y-92377220D01*
X161753052Y-92496439D01*
X161754994Y-92501221D01*
X161754995Y-92501225D01*
X161820446Y-92662411D01*
X161836849Y-92702807D01*
X161953226Y-92892717D01*
X162099058Y-93061070D01*
X162270428Y-93203344D01*
X162462734Y-93315718D01*
X162670811Y-93395175D01*
X162675879Y-93396206D01*
X162675882Y-93396207D01*
X162782778Y-93417955D01*
X162889072Y-93439581D01*
X162894247Y-93439771D01*
X162894249Y-93439771D01*
X163106491Y-93447554D01*
X163106495Y-93447554D01*
X163111655Y-93447743D01*
X163116775Y-93447087D01*
X163116777Y-93447087D01*
X163187642Y-93438009D01*
X163332582Y-93419441D01*
X163337531Y-93417956D01*
X163337537Y-93417955D01*
X163540969Y-93356922D01*
X163540968Y-93356922D01*
X163545919Y-93355437D01*
X163745939Y-93257448D01*
X163750144Y-93254448D01*
X163750150Y-93254445D01*
X163923065Y-93131106D01*
X163923067Y-93131104D01*
X163927269Y-93128107D01*
X164085039Y-92970887D01*
X164215012Y-92790010D01*
X164232836Y-92753947D01*
X164311404Y-92594976D01*
X164311405Y-92594974D01*
X164313698Y-92590334D01*
X164357875Y-92444932D01*
X164376945Y-92382164D01*
X164376945Y-92382163D01*
X164378447Y-92377220D01*
X164404937Y-92176008D01*
X164407082Y-92159716D01*
X164407082Y-92159710D01*
X164407519Y-92156394D01*
X164409142Y-92090000D01*
X164390892Y-91868017D01*
X164336631Y-91651995D01*
X164247817Y-91447736D01*
X164220380Y-91405325D01*
X164129645Y-91265070D01*
X164129640Y-91265064D01*
X164126834Y-91260726D01*
X164103203Y-91234755D01*
X163980411Y-91099808D01*
X163980409Y-91099806D01*
X163976933Y-91095986D01*
X163972882Y-91092787D01*
X163972878Y-91092783D01*
X163806196Y-90961147D01*
X163802138Y-90957942D01*
X163728052Y-90917044D01*
X163611675Y-90852800D01*
X163611672Y-90852799D01*
X163607144Y-90850299D01*
X163460624Y-90798414D01*
X163402059Y-90777675D01*
X163402056Y-90777674D01*
X163397187Y-90775950D01*
X163392098Y-90775043D01*
X163392096Y-90775043D01*
X163182996Y-90737796D01*
X163182990Y-90737795D01*
X163177907Y-90736890D01*
X163104094Y-90735988D01*
X162960361Y-90734232D01*
X162960359Y-90734232D01*
X162955191Y-90734169D01*
X162735022Y-90767859D01*
X162523311Y-90837057D01*
X162518723Y-90839445D01*
X162518719Y-90839447D01*
X162330334Y-90937514D01*
X162325745Y-90939903D01*
X162321612Y-90943006D01*
X162321609Y-90943008D01*
X162157314Y-91066365D01*
X162147630Y-91073636D01*
X161993748Y-91234664D01*
X161990836Y-91238933D01*
X161877332Y-91405325D01*
X161868233Y-91418663D01*
X161866060Y-91423345D01*
X161866058Y-91423348D01*
X161786960Y-91593752D01*
X161774455Y-91620691D01*
X161714932Y-91835322D01*
X161691264Y-92056793D01*
X140285899Y-92056793D01*
X140296045Y-92026293D01*
X140302115Y-91978246D01*
X140320588Y-91832022D01*
X140320589Y-91832012D01*
X140321030Y-91828519D01*
X140321428Y-91799999D01*
X140301975Y-91601605D01*
X140300194Y-91595706D01*
X140300193Y-91595701D01*
X140246139Y-91416666D01*
X140244358Y-91410767D01*
X140150771Y-91234755D01*
X140146881Y-91229985D01*
X140146878Y-91229981D01*
X140028673Y-91085048D01*
X140028670Y-91085045D01*
X140024778Y-91080273D01*
X140016756Y-91073636D01*
X139875929Y-90957134D01*
X139871180Y-90953205D01*
X139695825Y-90858391D01*
X139505395Y-90799443D01*
X139499270Y-90798799D01*
X139499269Y-90798799D01*
X139313270Y-90779250D01*
X139313268Y-90779250D01*
X139307141Y-90778606D01*
X139184262Y-90789789D01*
X139114756Y-90796114D01*
X139114755Y-90796114D01*
X139108615Y-90796673D01*
X139102701Y-90798414D01*
X139102699Y-90798414D01*
X138976863Y-90835450D01*
X138917380Y-90852957D01*
X138740719Y-90945313D01*
X138735919Y-90949173D01*
X138735918Y-90949173D01*
X138730903Y-90953205D01*
X138585361Y-91070224D01*
X138457224Y-91222932D01*
X138361189Y-91397620D01*
X138359328Y-91403487D01*
X138359327Y-91403489D01*
X138353027Y-91423348D01*
X138300912Y-91587634D01*
X138278692Y-91785738D01*
X119376200Y-91785738D01*
X119376200Y-87286612D01*
X126550982Y-87286612D01*
X126566646Y-87473142D01*
X126618242Y-87653078D01*
X126621057Y-87658555D01*
X126621058Y-87658558D01*
X126700989Y-87814088D01*
X126703804Y-87819565D01*
X126707627Y-87824389D01*
X126707630Y-87824393D01*
X126733901Y-87857538D01*
X126820075Y-87966262D01*
X126824766Y-87970254D01*
X126824769Y-87970257D01*
X126957930Y-88083586D01*
X126962625Y-88087582D01*
X126968003Y-88090588D01*
X126968005Y-88090589D01*
X127002397Y-88109810D01*
X127126025Y-88178903D01*
X127304050Y-88236747D01*
X127489921Y-88258911D01*
X127496056Y-88258439D01*
X127496058Y-88258439D01*
X127670415Y-88245023D01*
X127670420Y-88245022D01*
X127676556Y-88244550D01*
X127682486Y-88242894D01*
X127682488Y-88242894D01*
X127850920Y-88195867D01*
X127850919Y-88195867D01*
X127856848Y-88194212D01*
X127862348Y-88191434D01*
X127935781Y-88154340D01*
X128023928Y-88109813D01*
X128052383Y-88087582D01*
X128166578Y-87998363D01*
X128166579Y-87998363D01*
X128171434Y-87994569D01*
X128293745Y-87852870D01*
X128386205Y-87690111D01*
X128445290Y-87512494D01*
X128468751Y-87326783D01*
X128469125Y-87300003D01*
X128467812Y-87286609D01*
X129090975Y-87286609D01*
X129106639Y-87473139D01*
X129158235Y-87653075D01*
X129161050Y-87658552D01*
X129161051Y-87658555D01*
X129180023Y-87695471D01*
X129243797Y-87819562D01*
X129247620Y-87824386D01*
X129247623Y-87824390D01*
X129353539Y-87958021D01*
X129360068Y-87966259D01*
X129502618Y-88087579D01*
X129507996Y-88090585D01*
X129507998Y-88090586D01*
X129535609Y-88106017D01*
X129666018Y-88178900D01*
X129844043Y-88236744D01*
X130029914Y-88258908D01*
X130036049Y-88258436D01*
X130036051Y-88258436D01*
X130210408Y-88245020D01*
X130210413Y-88245019D01*
X130216549Y-88244547D01*
X130222479Y-88242891D01*
X130222481Y-88242891D01*
X130335364Y-88211373D01*
X130396841Y-88194209D01*
X130423373Y-88180807D01*
X130475774Y-88154337D01*
X130563921Y-88109810D01*
X130592376Y-88087579D01*
X130706571Y-87998360D01*
X130706572Y-87998360D01*
X130711427Y-87994566D01*
X130833738Y-87852867D01*
X130849914Y-87824393D01*
X130855769Y-87814085D01*
X130926198Y-87690108D01*
X130985283Y-87512491D01*
X131008744Y-87326780D01*
X131009118Y-87300000D01*
X130990852Y-87113706D01*
X130936749Y-86934509D01*
X130927316Y-86916768D01*
X130851764Y-86774674D01*
X130851762Y-86774671D01*
X130848870Y-86769232D01*
X130844979Y-86764461D01*
X130844977Y-86764458D01*
X130734457Y-86628948D01*
X130734454Y-86628945D01*
X130730562Y-86624173D01*
X130719159Y-86614739D01*
X130591081Y-86508784D01*
X130586332Y-86504855D01*
X130421673Y-86415824D01*
X130332265Y-86388148D01*
X130248744Y-86362294D01*
X130248741Y-86362293D01*
X130242857Y-86360472D01*
X130236732Y-86359828D01*
X130236731Y-86359828D01*
X130062824Y-86341549D01*
X130062823Y-86341549D01*
X130056696Y-86340905D01*
X129980143Y-86347872D01*
X129876418Y-86357312D01*
X129876415Y-86357313D01*
X129870279Y-86357871D01*
X129864373Y-86359609D01*
X129864369Y-86359610D01*
X129729075Y-86399429D01*
X129690708Y-86410721D01*
X129524822Y-86497444D01*
X129520022Y-86501304D01*
X129520021Y-86501304D01*
X129515601Y-86504858D01*
X129378940Y-86614736D01*
X129258619Y-86758130D01*
X129255655Y-86763522D01*
X129255652Y-86763526D01*
X129249522Y-86774677D01*
X129168441Y-86922163D01*
X129166580Y-86928030D01*
X129166579Y-86928032D01*
X129162653Y-86940409D01*
X129111841Y-87100588D01*
X129090975Y-87286609D01*
X128467812Y-87286609D01*
X128450859Y-87113709D01*
X128396756Y-86934512D01*
X128308877Y-86769235D01*
X128304987Y-86764465D01*
X128304984Y-86764461D01*
X128194464Y-86628951D01*
X128194461Y-86628948D01*
X128190569Y-86624176D01*
X128184863Y-86619455D01*
X128051088Y-86508787D01*
X128046339Y-86504858D01*
X127881680Y-86415827D01*
X127792272Y-86388151D01*
X127708751Y-86362297D01*
X127708748Y-86362296D01*
X127702864Y-86360475D01*
X127696739Y-86359831D01*
X127696738Y-86359831D01*
X127522831Y-86341552D01*
X127522830Y-86341552D01*
X127516703Y-86340908D01*
X127440150Y-86347875D01*
X127336425Y-86357315D01*
X127336422Y-86357316D01*
X127330286Y-86357874D01*
X127324380Y-86359612D01*
X127324376Y-86359613D01*
X127189082Y-86399432D01*
X127150715Y-86410724D01*
X126984829Y-86497447D01*
X126980029Y-86501307D01*
X126980028Y-86501307D01*
X126970729Y-86508784D01*
X126838947Y-86614739D01*
X126718626Y-86758133D01*
X126715662Y-86763525D01*
X126715659Y-86763529D01*
X126641462Y-86898494D01*
X126628448Y-86922166D01*
X126626587Y-86928032D01*
X126626586Y-86928035D01*
X126622661Y-86940409D01*
X126571848Y-87100591D01*
X126550982Y-87286612D01*
X119376200Y-87286612D01*
X119376200Y-81137161D01*
X119396202Y-81069040D01*
X119449858Y-81022547D01*
X119520132Y-81012443D01*
X119584712Y-81041937D01*
X119618984Y-81089858D01*
X119631583Y-81120963D01*
X119767569Y-81353210D01*
X119935658Y-81563395D01*
X120132327Y-81747113D01*
X120353457Y-81900516D01*
X120594416Y-82020391D01*
X120598750Y-82021812D01*
X120598753Y-82021813D01*
X120845823Y-82102807D01*
X120845829Y-82102808D01*
X120850156Y-82104227D01*
X120854647Y-82105007D01*
X120854648Y-82105007D01*
X121111538Y-82149611D01*
X121111546Y-82149612D01*
X121115319Y-82150267D01*
X121119156Y-82150458D01*
X121198777Y-82154422D01*
X121198785Y-82154422D01*
X121200348Y-82154500D01*
X121368374Y-82154500D01*
X121370642Y-82154335D01*
X121370654Y-82154335D01*
X121501457Y-82144844D01*
X121568425Y-82139985D01*
X121572880Y-82139001D01*
X121572883Y-82139001D01*
X121826770Y-82082947D01*
X121826772Y-82082946D01*
X121831226Y-82081963D01*
X122082900Y-81986613D01*
X122318172Y-81855931D01*
X122464842Y-81743996D01*
X122528491Y-81695421D01*
X122528495Y-81695417D01*
X122532116Y-81692654D01*
X122720249Y-81500203D01*
X122827242Y-81353210D01*
X122875942Y-81286304D01*
X122875947Y-81286297D01*
X122878630Y-81282610D01*
X123003941Y-81044433D01*
X123093557Y-80790662D01*
X123118688Y-80663156D01*
X123144720Y-80531083D01*
X123144721Y-80531077D01*
X123145601Y-80526611D01*
X123154782Y-80342186D01*
X123158755Y-80262383D01*
X123158755Y-80262377D01*
X123158982Y-80257814D01*
X123133421Y-79989900D01*
X123069453Y-79728482D01*
X122968417Y-79479037D01*
X122832431Y-79246790D01*
X122664342Y-79036605D01*
X122467673Y-78852887D01*
X122246543Y-78699484D01*
X122076745Y-78615011D01*
X122024664Y-78566760D01*
X122006937Y-78498013D01*
X122029191Y-78430594D01*
X122084363Y-78385910D01*
X122132867Y-78376200D01*
X164458154Y-78376200D01*
X164526275Y-78396202D01*
G37*
%TD.AperFunction*%
%TD*%
M02*
